<svg width="73" height="68" viewBox="0 0 73 68" fill="none" xmlns="http://www.w3.org/2000/svg">
<path fill-rule="evenodd" clip-rule="evenodd" d="M52.7579 3.74182C50.1288 3.54172 46.8577 3.54174 42.6854 3.54175H30.3146C26.1423 3.54174 22.8712 3.54172 20.2421 3.74182C17.565 3.94556 15.3534 4.36732 13.3516 5.31743C10.0607 6.87937 7.38511 9.37168 5.70833 12.4372C4.68835 14.3019 4.23558 16.362 4.01686 18.8557C3.80205 21.3047 3.80206 24.3518 3.80208 28.2383V40.3137C3.80208 47.3892 9.95967 53.1251 17.5554 53.1251H19.3858C20.1416 53.1251 20.6585 53.8362 20.3778 54.4899C18.2892 59.3538 24.3026 63.751 28.8788 60.7062L36.8198 55.4225L36.9692 55.3234C39.1254 53.9081 41.6949 53.1411 44.3326 53.1253L44.516 53.1251L46.6321 53.1251C51.3425 53.1257 54.2157 53.1261 56.6294 52.4669C62.3454 50.9057 66.8153 46.7419 68.4913 41.4174C69.199 39.1691 69.1986 36.4927 69.198 32.105L69.1979 28.2383C69.1979 24.3518 69.1979 21.3047 68.9831 18.8557C68.7644 16.362 68.3116 14.3019 67.2917 12.4372C65.6149 9.37168 62.9393 6.87937 59.6484 5.31743C57.6466 4.36732 55.435 3.94556 52.7579 3.74182ZM15.4229 9.10421C16.6743 8.51025 18.2187 8.15997 20.6136 7.9777C23.0352 7.7934 26.1203 7.79175 30.4167 7.79175H42.5833C46.8797 7.79175 49.9648 7.7934 52.3864 7.9777C54.7813 8.15997 56.3257 8.51025 57.5771 9.10421C60.0095 10.2587 61.9871 12.1008 63.2264 14.3666C63.8641 15.5323 64.2401 16.9709 64.4358 19.2018C64.6336 21.4575 64.6354 24.3313 64.6354 28.3334V31.6887C64.6354 36.6241 64.6122 38.6362 64.1131 40.2216C62.8744 44.1571 59.5705 47.2346 55.3456 48.3886C53.6437 48.8534 51.4836 48.8751 46.1853 48.8751H44.516L44.3034 48.8754C40.7347 48.8967 37.2584 49.9344 34.3411 51.8493L34.1679 51.9642L26.2269 57.2478C25.3586 57.8255 24.2177 56.9912 24.6139 56.0683C26.0934 52.6229 23.3695 48.8751 19.3858 48.8751H17.5554C12.4795 48.8751 8.36458 45.042 8.36458 40.3137V28.3334C8.36458 24.3313 8.36635 21.4575 8.5642 19.2018C8.75988 16.9709 9.13591 15.5323 9.77355 14.3666C11.0129 12.1008 12.9905 10.2587 15.4229 9.10421Z" fill="#4F378A"/>
<path d="M27.375 28.3333C27.375 29.8981 26.0132 31.1667 24.3333 31.1667C22.6535 31.1667 21.2917 29.8981 21.2917 28.3333C21.2917 26.7685 22.6535 25.5 24.3333 25.5C26.0132 25.5 27.375 26.7685 27.375 28.3333Z" fill="#4F378A"/>
<path d="M39.5417 28.3333C39.5417 29.8981 38.1799 31.1667 36.5 31.1667C34.8201 31.1667 33.4583 29.8981 33.4583 28.3333C33.4583 26.7685 34.8201 25.5 36.5 25.5C38.1799 25.5 39.5417 26.7685 39.5417 28.3333Z" fill="#4F378A"/>
<path d="M51.7083 28.3333C51.7083 29.8981 50.3465 31.1667 48.6667 31.1667C46.9868 31.1667 45.625 29.8981 45.625 28.3333C45.625 26.7685 46.9868 25.5 48.6667 25.5C50.3465 25.5 51.7083 26.7685 51.7083 28.3333Z" fill="#4F378A"/>
</svg>
