<svg width="53" height="53" viewBox="0 0 53 53" fill="none" xmlns="http://www.w3.org/2000/svg">
<path fill-rule="evenodd" clip-rule="evenodd" d="M20.6452 6.95282C19.4412 8.0422 18.625 9.75746 18.625 12.25C18.625 15.3187 19.7685 18.4265 21.4654 20.7295C23.2387 23.1361 25.1725 24.125 26.5 24.125C27.8275 24.125 29.7613 23.1361 31.5346 20.7295C33.2315 18.4265 34.375 15.3187 34.375 12.25C34.375 9.75746 33.5588 8.0422 32.3548 6.95282C31.1507 5.86343 29.2549 5.125 26.5 5.125C23.7451 5.125 21.8493 5.86343 20.6452 6.95282ZM34.6248 24.9027C35.0861 24.4103 35.5132 23.8932 35.9029 23.3643C38.1435 20.3235 39.625 16.3063 39.625 12.25C39.625 8.80504 38.4724 5.7703 36.0671 3.59406C33.6618 1.41782 30.3076 0.375 26.5 0.375C22.6924 0.375 19.3382 1.41782 16.9329 3.59406C14.5276 5.7703 13.375 8.80504 13.375 12.25C13.375 16.3063 14.8565 20.3235 17.0971 23.3643C17.4868 23.8932 17.9139 24.4103 18.3752 24.9027C15.5301 25.4428 12.6438 26.2874 10.0363 27.5077C4.75255 29.9804 0.250224 34.214 0.250142 40.7498C0.250142 40.7498 0.250142 40.7499 0.250142 40.7498L0.249751 45.4995C0.249426 49.4347 3.77528 52.625 8.12475 52.625H44.8751C49.2244 52.625 52.7501 49.435 52.7501 45.5V40.75C52.7501 34.2141 48.2477 29.9804 42.9639 27.5077C40.3563 26.2874 37.4699 25.4428 34.6248 24.9027ZM26.5 28.875C22.2017 28.875 16.7367 29.7198 12.4483 31.7267C8.21646 33.7071 5.50014 36.5984 5.50014 40.75L5.49975 45.4998C5.49964 46.8116 6.67493 47.875 8.12475 47.875H44.8751C46.3249 47.875 47.5001 46.8117 47.5001 45.5V40.75C47.5001 36.5984 44.7838 33.7071 40.5519 31.7267C36.2634 29.7198 30.7983 28.875 26.5 28.875Z" fill="#4F378A"/>
</svg>
